<svg xmlns="http://www.w3.org/2000/svg" viewBox="0 0 510.44 541.22"><defs><style>.cls-1{fill:#f15a24;}</style></defs><g id="Layer_2" data-name="Layer 2"><g id="Layer_1-2" data-name="Layer 1"><g id="Layer_2-2" data-name="Layer 2"><g id="Layer_3" data-name="Layer 3"><path d="M237.77,171.84c4.11-4.66,6.52-14.06,7.6-27.13l6.35-14.47c4.63-13.49,13.59-22.31,27.53-25.77L289.49,102c4.53-6.49,9.27-12.51,15.17-15.88A71.65,71.65,0,0,0,299,106.94l5.64-4.59c.8,3.4-1.22,8.16-4.23,13.41l2.12,9.89c2.54,8.72,2.75,18.22,1.41,28.23,1.63,13.73,7.51,17.9,16.94,14.12l24.71-10.59q8.82-4.23,6.35-14.12C351.09,125,355,112.57,365.37,108c-.89-26.12,2.41-44.48,12-51.18,2.67,3.73,3.78,9.22,3.53,16.24C393,42.5,405.34,17.34,418.31.71c13.37,8.41,5.5,30.74-9.17,57.53C428.61,34.82,446.71,14.09,460,2.82c9.51,15.63-4.32,36.49-23.65,58.59,20.51-19.83,39.37-36.52,50.12-37.76,7.83,19.2-6.73,35.4-27.18,50.82,17.93-11.16,34.85-21.26,42-21.18,8.16,16.77-9.53,30.68-31.41,44.12C486,92,502.4,86.47,509.72,86.12c3.6,11.4-6.81,21.68-19.76,31.76,7.29-.7,13.94-.87,18,1.06,2.3,9.57-7,18-19.77,26.12,15.92,1.57,10.32,13.32-4.94,29.65,6.11,9.57.09,20.07-12.35,31,7.42,12-.49,21.18-15.18,29,3.67,11.11-5.87,19.4-21.17,26.47,1,9.11-7.55,14.77-20.83,18.7,2,11.56-8.51,16.77-22.94,19.41-1.89,5.41-8.64,7.9-18,8.83-3.77,5.89-10.42,7-19.41,4.23-3.73,6.43-12.1,7-22.23,5.3-5.41,2.09-10.15,1.07-14.12-3.53,1.57-6,1.35-11.11-.36-15.53l-4.23,12c-.77,2.51-.25,5.88.71,9.53l89.29,81.53c12.37,13.61,12.5,21.39,1.76,24a44.1,44.1,0,0,0,9.89,15.53c1.83,4.47.6,8.67-2.47,12.7-5,3.21-10.84,4.91-17.3,5.65l8.12,11.65c2.58,5.63,2.83,10.34.71,14.11a11.6,11.6,0,0,1-8.48,5.65c-3.26,2.16-7.07,1.67-11.64-2.47l-6.71-5.29L382.66,498c1.87,9,.68,14.81-4.23,16.59-1.62,2.75-5.25,4.4-10.24,5.29-4,2.84-9.16-.12-15.17-7.06,1.31,7.11-.16,11.94-5.3,13.77L340.66,528c-3.18,1.91-6.92,2.39-10.94,2.12-3.49,7.88-11.76,8.8-22.58,6-2.73,6.77-11.52,6.07-22.95,2.12-4.73,2.71-9.43,1.86-14.11-2.48l-.36-14.82-5.64,12.71c-.68,4.49-4.46,5.89-9.53,6a26.08,26.08,0,0,1-13.77-1.77c-5,.3-9.1-2.53-12.35-8.12-6.83,1.89-11.82-4.35-15.53-16.23a12.17,12.17,0,0,1-10.59,1.06L195.25,510c-2.62-6.68-.14-16.76,2.83-27.18-11.14,1.77-18.22-.55-17.65-10.58l59.29-128.48a40.33,40.33,0,0,0-13.41-43.05l-3.53,12.7c-1.11,4.74-4.4,5.85-8.47,5.65-2.71.75-5.83.33-9.17-.71-8.55,3.88-16.8,3.53-24.71-2.11-13.05,2.33-20.38-.52-23.65-7.06-10.07-.17-18.13-4.05-24-12-11.88,1.52-20.94-1.84-25.06-13.77-12.66-.07-21.59-6.65-25.76-21.53-12.87-3.35-19.51-11.34-20.82-23.29-18.4-9-23.51-19.41-17.3-31.06-7.78-3-11.73-7.44-11.65-13.41-2.28-5.18-1.63-10.36.71-15.53L19.49,163.41c-6-6.76-4.1-12,7.06-15.53L5.37,129.18c-4.13-4.32-3.25-7.81,4.59-10.24l20.82,2.12C11,108.07-4.41,95.84,1.14,87.18c9.36-1.54,29.32,5.53,49.41,12.7C27.77,85.68,7.69,71.31,11.72,55.41c10.84-.88,34.48,11.87,57.53,24C46.63,59.71,24.85,40.12,32.9,24c11.75.16,35.65,22.48,58.59,43.06C72.2,43,56.24,19.6,62.9.35c14.77,8.24,38.75,39.55,62.47,70.24C112,42.29,98.79,14.05,110.9,0c9.47,12.38,26.23,50.46,42,85.06a96.49,96.49,0,0,1,3.18-27.53c11.68,10.79,12.46,31,12.35,51.88,14.33,10.67,20.52,23.29,20.47,37.41C199.47,158.36,216.34,166.38,237.77,171.84Z"/><path class="cls-1" d="M168.43,109.41c-20.9,8.16-23.84,20.51-15.77,35.41-2.5,5.54-7.69,8.91-14.11,11.3-19.08,7.36-18.34,10-14.12,11.76.6,9.06,4.71,14.59,1.88,18.83s-24.12,19.87-38.59,32c-13.65,4.54-18.81.15-15.06-13.65-8.11-9.08-13-17.82-7-25.41-4.57-7.54-7.34-14.56-7.06-20.71,1.07-2.75,5.64-4.79,16-5.65,1.82-7.13,5.55-13.91,16.94-19.29-6.76-3.63-5.65-8.69,10.35-16.47-.57-3.9,1.52-7.62,11.77-10.82-6.09-7-5-11,8-10.36,3.63-4.66,8.33-7.91,16.47-6.59,3.24-4.25,7.91-6.25,14.82-4.7-1.4-10.76-1.19-20.51,3.18-27.53C166.54,66.12,169.87,84.49,168.43,109.41Z"/><path class="cls-1" d="M365.11,107.91c32.38,19.86,35.51,38.26,13.44,55.27,13.55,8.37,25.56,18,35.29,29.64a61.7,61.7,0,0,1,16,17.42c7.49,8.21,14.51,10.58,20.71,2.82,5.76-3.81,4.13-7.07-3.77-9.88,16.72-11.12,23.91-20.61,8.94-26.36,12.41-10.07,11.27-18.22-3.29-24.47,2.24-7.21-1.54-13.53-12.24-18.82,3.31-8.5-4-12.35-15.05-14.59,10.19-6.16,10-10.82-6.12-13.18.41-7.09-3.33-11.39-10.83-13.17-1.8-3.49-7.16-3.66-14.11-2.35,2-8.54-6.44-6.48-16.94-2.36l3.76-14.82c.62-9-.56-14.44-3.53-16.24C366.82,60.31,363.08,78.08,365.11,107.91Z"/><path class="cls-1" d="M300.43,115.76c-2.87,2.63-4.22,6.07-3.29,10.71a51.35,51.35,0,0,1-.95,19.29,23.17,23.17,0,0,0,1.42,15.53c7.6,11,14.91,12.77,22.11,11.3a171.63,171.63,0,0,1,28.71-13.18c3.27-4.13,3.74-9.92,3.53-16.12-2.91,6.54-6.13,12.32-10.59,15.18A117.29,117.29,0,0,0,323.49,166L304,153.88C306.63,142,304.44,128.42,300.43,115.76Z"/><path class="cls-1" d="M313.14,320.12l.94,21.88,68.23,105.41c8.23,14,17.91,16.86,29.3,6.47,4.09-3.22,4.84-7.47,2.47-12.7l-9.89-15.53c12.42-1.44,11.34-9.69-1.76-24C366.56,367.1,330.73,332.6,313.14,320.12Z"/><path class="cls-1" d="M352.66,414c1.2-2.84,40.9,41.79,46.59,52.71C414.78,482,396.9,503.65,383,488.47l-6.71-5.29C370.07,473.66,362.75,455.26,352.66,414Z"/><path class="cls-1" d="M236.9,434.71c-6.17,17.6-11.78,49.89-17.41,81.88-2.66,2.39-4.28,1.76-4.24-3.77C226.79,461,239.32,406.33,241.61,382a90,90,0,0,1,5.17-14.59c-1.77-10.37-4-18.59-7.06-23.65-23.29,47.85-44.29,92.44-59.29,128.48-1.65,10.93,4.75,13.95,17.65,10.58-14.83,27.65,2.82,40.83,14.82,30.71,3.82,11.82,8.5,19.58,15.53,16.23,3.8-21.14,7.91-40.78,12.71-56.94C241.36,458.15,240.18,445.16,236.9,434.71Z"/></g></g></g></g></svg>