<svg xmlns="http://www.w3.org/2000/svg" viewBox="0 0 54.68 231.51"><defs><style>.cls-1{fill:#f15a24;fill-rule:evenodd;}</style></defs><g id="Layer_2" data-name="Layer 2"><g id="Layer_1-2" data-name="Layer 1"><g id="Layer_2-2" data-name="Layer 2"><g id="Layer_1-2-2" data-name="Layer 1-2"><path class="cls-1" d="M52,193.28c-.54-.33-.23,0-1,0,.11-.75-.26-1.19-.44-2.07.5-.4-3-6.85-3.86-8.32-2.87-4.75-5.47-9.46-8-14.11l-2.38-2.67c-.5-1.07.2-1.77,0-2.67-.36-1.66-1.51-2.66-1.48-4.9,2.58-1.67,2.74-7,3.26-10.25-.09-.59-.19-1.19-.29-1.78.39-.92,1.59-1.75,1.93-3-.31-.9-.2-1.71-1-2.67a3.8,3.8,0,0,1,1-2.08l-1-1.93a6.83,6.83,0,0,0,2.08-4.31c2.24-.63,2.41-1.75,3.86-3.41a6.25,6.25,0,0,0-3.12-5.5c-.68-1.13.42-1.38,0-3.12-2.2-4.08-4.47-4.85-9.21-4.6l-.59-1a10.48,10.48,0,0,0,.89-4.75c-.2-.94-.4-1.88-.59-2.82.88-4.22.38-8.87.14-13.07-.07-1.32.88-2.4.6-4.16l-.6-2.82c.07-1.45.8-3.44.45-5.34l-.45-1.34c.07-1.25.94-2.47.6-4.3a36.2,36.2,0,0,1,0-10.7c.42-1.94-.77-4-.45-5.34a10.06,10.06,0,0,0,.6-4.31l-.45-2.67c.2-1,.87-2.14.6-3.71l-.45-1.93c.16-1,1-2.15.74-3.72-.2-1.08-.39-2.17-.59-3.26a46,46,0,0,0,0-12.62c.2-1.39.39-2.78.59-4.16-.28-4.3.1-8.69.15-12.77,0-1.47-.69-2.82-.59-3.86.19-2.15,1-4.27,0-6.54,0-.95-3.46-.69-4.9-.59-.27,1.49.41,3,.29,4.31-.13,1.62.08,4.69-.14,6.38l-.6,3.42.6,2.82c-.8,14.58,0,28.72-1.19,42.61.2,1.29.39,2.58.59,3.86A41.79,41.79,0,0,0,27,68.12c.15.94.29,1.88.44,2.82-.21,1.42-.83,2.53-.59,4A35.6,35.6,0,0,1,27,85c-.46,2.3.83,4.29.59,5.94-.7,4.86.11,10.42-.74,15.29-.65,3.7,1,5.68-.74,8.91,0,0,.71,5.39.29,7a18.65,18.65,0,0,1-4.6.15c-.25,1.33-.49,2.67-.74,4l.59.29a13.26,13.26,0,0,0-1,5.2l1,.74c0,.14-2.37,2.34-2.67,2.68.9,1.83-1.19,9-2.53,10.39.39,2.72,2.13,4.11,3.27,6.09-.45.36-.23.17-.3.59-.12.93.85,1.19,1.34,2.08.75,1.37.17,5.26-.3,6.39l-1.78,1.63c-1.6,2-3.17,4.14-4.75,6.09-5.53,6.67-10.64,13.08-12.43,22.26l.74-.59L.59,192.84c-1,2.51-.58,7.59.15,9.5-.15,1.24-.29,2.48-.44,3.71.78,3.61,3.38,7.34,4.16,11l1.33.15c.7,1.72.63,3.84,2.67,4.6l-.14-.29c2.2,1.59,3.45,4.38,5.49,6.09,2.8,2.33,14.42,5.06,20.19,3.41,1.39-.39,2.7-1.31,4.46-1.63.41-.56.32-.38.3-1.34,3.12-1.11,11.3-7.28,12.47-11,.33-1-.65-.78-.3-1.63l2.23-2.08c1.09-1.64,1.2-5.82,1.49-7.87C55,203.13,52.73,196.29,52,193.28Zm-2.67,16.93a22,22,0,0,0-1.93,3.57c.22.7-.09.34.59.44-1,1.46-2.74,2.38-3.12,4l.75-.15c-1.83,3.09-14.56,10.6-20.94,8a3.05,3.05,0,0,0,.59.6l-1.93-.3c.29-.45,0-.25.6-.45-2.17-.93-4.07-.51-5.79-1.93-2.3-1.85-10.82-9.56-11.15-12.44.2-.4.4-.79.59-1.19C7.43,209,6,207.76,5.64,206.8c-.28-.76.39-1.65.15-2.68-.18-.75-1-2.14-1-2.67-.12-1.44,1.29-2.63,1.34-4.6l-.6-1.19c-.31-1.24.71-1.8.9-2.67,0-1.59.09-3.17.14-4.75,1.37-4.22,4.75-8.9,7.13-12.63l3-2.67,1-2.37,2.67-2.38c.35-.74.7-1.48,1-2.23.73-.81,2-1.16,2.68-2.08,1.19-1.7,1.72-3.59,3.11-5h.75c1.5,4,2.39,7.41,4.45,10.84s5.34,6.46,7.43,9.94c2.48,4.15,4,8.24,6.23,12.48l-.59-.15c2,4.7,3.94,9.12,3.86,15.44Zm2.23,4c-.21.28,0,.09-.3.3.3-.69.59-1.39.89-2.08.34.46-.15,1.38-.6,1.79Zm0-21.53-.15-.59L51,192l.3.59Z"/><path class="cls-1" d="M20.17,3.71l4,.11c.13,1,.78,1.73.51,3.07l-.51,2.49c.18.9.78,2,.51,3.3-.39,1.84-.8,5.88-.25,7.94S23,24.31,24,25.05c1.37,3.25-.51,8.15.38,11a2.89,2.89,0,0,1-.76,2.83c-1,.59-2.58.94-3.3-.11V37a39.87,39.87,0,0,1-.38-8.17l.26-2a30.37,30.37,0,0,1,.12-9.42l-.38-3.63C20.21,10.78,20.17,7,20.17,3.71Z"/><path class="cls-1" d="M12.62,4.28l4.12.11c.14,1,.79,1.71.52,3l-.52,2.48c.18.9.8,2,.52,3.27C16.87,15,16.44,19,17,21.07s-1.49,3.66-.51,4.39c1.39,3.22-.52,8.09.38,10.93a2.8,2.8,0,0,1-.77,2.81c-1,.59-2.63.93-3.35-.11v-1.8a38,38,0,0,1-.39-8.11l.26-2a29.63,29.63,0,0,1,.13-9.35l-.39-3.61A97.44,97.44,0,0,0,12.62,4.28Z"/><path class="cls-1" d="M5.83,6.15,10,6.26c.14.91.79,1.64.52,2.92L10,11.56c.18.85.8,1.89.52,3.13-.39,1.76-.82,5.61-.26,7.57s-1.49,3.52-.51,4.22c1.39,3.1-.52,7.77.38,10.49a2.62,2.62,0,0,1-.77,2.7c-1,.57-2.63.89-3.35-.1V37.84a35.06,35.06,0,0,1-.39-7.79l.26-1.95a27.19,27.19,0,0,1,.13-9L5.6,15.64A94,94,0,0,0,5.83,6.15Z"/></g></g></g></g></svg>