<svg id="Layer_1" data-name="Layer 1" xmlns="http://www.w3.org/2000/svg" xmlns:xlink="http://www.w3.org/1999/xlink" viewBox="0 0 473.26 636"><defs><style>.cls-1{fill:url(#linear-gradient);}.cls-2{fill:url(#linear-gradient-2);}.cls-3{fill:url(#linear-gradient-3);}</style><linearGradient id="linear-gradient" x1="623.93" y1="330.07" x2="1007.79" y2="713.93" gradientUnits="userSpaceOnUse"><stop offset="0" stop-color="#cce0f4"/><stop offset="0.11" stop-color="#c3d7eb"/><stop offset="0.3" stop-color="#abbdd2"/><stop offset="0.55" stop-color="#8394a9"/><stop offset="0.83" stop-color="#4d5b72"/><stop offset="0.99" stop-color="#2a364e"/></linearGradient><linearGradient id="linear-gradient-2" x1="1105.02" y1="403.7" x2="861.77" y2="646.95" gradientUnits="userSpaceOnUse"><stop offset="0" stop-color="#a23307"/><stop offset="1" stop-color="#fc7743"/></linearGradient><linearGradient id="linear-gradient-3" x1="1104.88" y1="640.14" x2="861.88" y2="397.14" gradientUnits="userSpaceOnUse"><stop offset="0" stop-color="#fc7743"/><stop offset="1" stop-color="#a23307"/></linearGradient></defs><path class="cls-1" d="M750,204V840c175.63,0,318-142.37,318-318S925.63,204,750,204Z" transform="translate(-750 -204)"/><path class="cls-2" d="M948.62,675.22c70.18-61.18,183.3-119,274.64-152.91l-.09-.46H750V535.2q26.44,1.08,52.88,1.75c37.77,1,75.54,1.31,113.3,1.17H917c39.47-.1,67.08,39,53.65,76.11Z" transform="translate(-750 -204)"/><path class="cls-3" d="M1223.17,521.85c-91.32-33.93-204.39-91.68-274.55-152.85l22.06,61c13.43,37.12-14.18,76.21-53.65,76.11h-.83c-37.76-.14-75.53.17-113.3,1.17q-26.43.67-52.88,1.75v12.86Z" transform="translate(-750 -204)"/></svg>