<svg id="Layer_1" data-name="Layer 1" xmlns="http://www.w3.org/2000/svg" xmlns:xlink="http://www.w3.org/1999/xlink" viewBox="0 0 1920 1080.01"><defs><style>.cls-1{opacity:0.8;}.cls-2{fill:#191817;}.cls-3{fill:url(#radial-gradient);}.cls-4{fill:url(#linear-gradient);}.cls-5{fill:url(#linear-gradient-2);}.cls-6{fill:url(#linear-gradient-3);}</style><radialGradient id="radial-gradient" cx="1170.21" cy="742.48" fx="1191.0455331324354" r="137.88" gradientTransform="matrix(1, 0, 0, -1, 0, 1080)" gradientUnits="userSpaceOnUse"><stop offset="0" stop-color="#f2f2f2"/><stop offset="0.04" stop-color="#c6c6c6"/><stop offset="0.08" stop-color="#9d9d9d"/><stop offset="0.13" stop-color="#777"/><stop offset="0.19" stop-color="#575757"/><stop offset="0.25" stop-color="#3b3b3b"/><stop offset="0.31" stop-color="#252525"/><stop offset="0.39" stop-color="#141414"/><stop offset="0.49" stop-color="#090909"/><stop offset="0.62" stop-color="#020202"/><stop offset="1"/></radialGradient><linearGradient id="linear-gradient" x1="1142.15" y1="767.93" x2="938.46" y2="842.07" gradientTransform="matrix(1, 0, 0, -1, 0, 1080)" gradientUnits="userSpaceOnUse"><stop offset="0" stop-color="#4d4d4d"/><stop offset="0.1" stop-color="#3f3f3f"/><stop offset="0.32" stop-color="#232323"/><stop offset="0.54" stop-color="#101010"/><stop offset="0.77" stop-color="#040404"/><stop offset="1"/></linearGradient><linearGradient id="linear-gradient-2" x1="1205.67" y1="747.67" x2="1402.42" y2="823.2" xlink:href="#linear-gradient"/><linearGradient id="linear-gradient-3" x1="1169.45" y1="738.49" x2="1169.45" y2="-0.01" gradientTransform="matrix(1, 0, 0, -1, 0, 1080)" gradientUnits="userSpaceOnUse"><stop offset="0" stop-color="#333"/><stop offset="0.06" stop-color="#252525"/><stop offset="0.17" stop-color="#141414"/><stop offset="0.3" stop-color="#090909"/><stop offset="0.49" stop-color="#020202"/><stop offset="1"/></linearGradient></defs><title>logoBackground</title><g class="cls-1"><rect class="cls-2" width="1920" height="1080"/><path class="cls-3" d="M1242,343a72.55,72.55,0,0,0-57.73-71l-.49-230.13h0L1155.73,0l-1.06,272a72.55,72.55,0,0,0-57.73,71,1.21,1.21,0,0,0,0,.14A72.56,72.56,0,0,0,1242,343"/><path class="cls-4" d="M1101.4,341.5c0,.05,0,.09,0,.14l0-.14a68.22,68.22,0,0,1,54.28-66.77V0L836.57,517.86C970.37,493.32,1066.64,440.54,1101.4,341.5Z"/><path class="cls-5" d="M1183.56,274.73a68.21,68.21,0,0,1,54.28,66.77c36.46,102,130.37,156.06,264.71,176.14L1183.78,41.87l-.22-.33Z"/><path class="cls-6" d="M1168.82,956.6c-15.31-21.87-36.48-38.87-57.78-55-17.75-13.4-37.74-30.28-36.41-52.48,1.19-20,19.62-34.41,37.83-42.72,29-13.22,61.1-18,90.58-30s58-34.38,63.58-65.73c5.7-32.08-14-64.77-7.76-96.75,5.37-27.45,29.24-48.14,55.24-58.46s54.4-12.28,82.13-16c35.69-4.74,72-11.2,106.33-21.86-134.37-20.08-228.31-74.12-264.77-176.15a68.19,68.19,0,0,1-136.38.13c-34.8,99-131.06,151.71-264.84,176.24h-.06c-.06.1-.11.21-.16.31,98.77,12,197.15,44.78,273.86,108.15,17.27,14.26,33.56,30.28,44.51,49.82,6.29,11.23,10.76,23.81,10.48,36.67-.65,29.59-25.86,53.07-52.51,65.95s-56.42,19-81.79,34.22-46.43,44.26-39.13,72.93c4.43,17.42,18.29,30.82,32.92,41.26,22.08,15.74,47,26.86,70.56,40.35s46.29,30,60.3,53.25c10,16.61,14.25,40.46,10.74,59.22.55,0,15.84-.15,21.64-.43C1199.43,1039.45,1192.81,990.88,1168.82,956.6Z"/></g></svg>