<?xml version="1.0" encoding="utf-8"?>
<!-- Generator: Adobe Illustrator 24.0.2, SVG Export Plug-In . SVG Version: 6.00 Build 0)  -->
<svg version="1.1" id="Layer_1" xmlns="http://www.w3.org/2000/svg" xmlns:xlink="http://www.w3.org/1999/xlink" x="0px" y="0px"
	 viewBox="0 0 721 721" style="enable-background:new 0 0 721 721;" xml:space="preserve">
<style type="text/css">
	.st0{fill:#191817;stroke:#000000;stroke-miterlimit:10;}
	.st1{fill:#F37158;}
</style>
<title>navWave</title>
<rect x="0.5" y="0.5" class="st0" width="720" height="720"/>
<path class="st1" d="M57.6,354.5c26.6,5,52.2,10.7,77.6,14.2c12.7,1.8,25.2,3.3,37.6,4.2c12.2,0.9,24.4,1.1,36.6,0.7
	c11.8-0.4,23.6-1.6,35.3-3.5c5.8-1,11.5-2.1,17.2-3.5l4.3-1l4.2-1.1c2.8-0.7,5.6-1.6,8.5-2.4c11.3-3.4,22.5-7.5,33.9-12l8.6-3.5
	c2.9-1.2,5.8-2.4,8.6-3.7c5.8-2.5,11.7-5,17.6-7.6l18.2-7.7c6.1-2.5,12.5-5.1,18.8-7.5c13.1-5,26.4-9.4,39.9-13
	c3.5-0.9,6.9-1.7,10.4-2.6l5.3-1.1c1.8-0.4,3.5-0.7,5.3-1c3.5-0.6,7.1-1.3,10.7-1.8l5.4-0.8l5.4-0.6c14.3-1.5,28.7-1.9,43.1-1
	c14.1,0.9,28.2,2.9,42,6c13.5,3.1,26.8,7.1,39.8,12c12.8,4.8,25.2,10.5,37.2,16.9c3,1.6,6,3.2,8.9,4.9l8.7,5.2l4.3,2.7
	c1.4,0.9,2.8,1.9,4.2,2.8c2.8,1.9,5.6,3.8,8.3,5.8c-3.4-0.3-6.7-0.7-10.1-1.2c-1.7-0.2-3.3-0.4-5-0.7l-5-0.6l-9.8-1.4
	c-3.3-0.3-6.6-0.8-9.8-1.1c-13-1.5-25.9-2.9-38.7-3.7s-25.3-1.3-37.7-1.1c-12.2,0.1-24.4,0.9-36.5,2.2c-23.6,2.8-46.9,8.3-69.3,16.3
	c-11.3,4-22.6,8.5-34.1,13.5c-5.8,2.5-11.6,5-17.5,7.6l-17.9,7.8l-9.2,3.9c-3.1,1.3-6.2,2.6-9.4,3.9c-6.3,2.5-12.8,5-19.3,7.3
	c-13.4,4.8-27.1,8.7-41.1,11.7c-7.1,1.5-14.2,2.8-21.5,3.6s-14.5,1.4-21.8,1.8c-14.5,0.5-29-0.3-43.3-2.3c-14-2-27.9-5.1-41.4-9.4
	c-13.2-4.2-26.1-9.2-38.7-15.1l-4.6-2.2c-1.6-0.7-3.1-1.5-4.6-2.3c-3-1.6-6.1-3.1-9.1-4.8s-5.9-3.4-8.9-5l-4.4-2.6l-4.3-2.7
	C79,371,68.1,363.1,57.6,354.5z"/>
<path class="st1" d="M65.8,548c26.6,5,52.2,10.7,77.6,14.2c12.7,1.8,25.2,3.3,37.6,4.2c12.2,0.9,24.4,1.1,36.6,0.7
	c11.8-0.4,23.6-1.6,35.3-3.5c5.8-1,11.5-2.1,17.2-3.5l4.3-1l4.2-1.2c2.8-0.7,5.6-1.6,8.5-2.4c11.3-3.4,22.5-7.5,33.9-12l8.6-3.5
	c2.9-1.2,5.7-2.4,8.6-3.7c5.8-2.5,11.7-5,17.6-7.6l18.2-7.7c6.1-2.5,12.5-5.1,18.8-7.5c13.1-5,26.4-9.4,39.9-13
	c3.4-0.9,6.9-1.7,10.4-2.6l5.3-1.1c1.8-0.4,3.5-0.7,5.3-1c3.5-0.6,7.1-1.3,10.6-1.8l5.4-0.8l5.4-0.6c14.3-1.5,28.7-1.9,43.1-1
	c14.1,0.9,28.2,2.9,42,6c13.5,3.1,26.8,7.1,39.8,12c12.8,4.8,25.2,10.5,37.2,16.9c3,1.6,6,3.2,8.9,4.9l8.7,5.2l4.3,2.7
	c1.4,0.9,2.8,1.8,4.2,2.8c2.8,1.9,5.6,3.8,8.3,5.8c-3.4-0.3-6.7-0.7-10.1-1.2c-1.7-0.2-3.3-0.4-5-0.7l-5-0.6l-9.8-1.3
	c-3.3-0.3-6.6-0.8-9.8-1.1c-13-1.5-25.9-2.9-38.7-3.7s-25.3-1.3-37.7-1.2c-12.2,0.1-24.4,0.9-36.5,2.2c-23.7,2.8-46.9,8.3-69.3,16.3
	c-11.3,4-22.6,8.5-34.1,13.5c-5.8,2.5-11.6,5-17.5,7.6l-17.9,7.8l-9.2,3.9c-3.1,1.3-6.2,2.6-9.4,3.9c-6.3,2.5-12.8,5-19.3,7.3
	c-13.4,4.8-27.1,8.7-41.1,11.7c-7.1,1.5-14.3,2.8-21.5,3.6s-14.5,1.4-21.8,1.8c-14.5,0.5-29-0.3-43.3-2.3c-14-2-27.9-5.1-41.4-9.4
	c-13.2-4.2-26.1-9.2-38.6-15.1l-4.6-2.2c-1.5-0.7-3.1-1.5-4.6-2.3c-3-1.6-6-3.2-9-4.8s-5.9-3.3-8.9-5l-4.4-2.6l-4.3-2.7
	C87.2,564.6,76.3,556.7,65.8,548z"/>
<path class="st1" d="M57.6,160.9c26.6,5,52.2,10.7,77.6,14.2c12.7,1.8,25.2,3.3,37.6,4.2c12.2,0.9,24.4,1.1,36.6,0.7
	c11.8-0.4,23.6-1.6,35.3-3.6c5.8-1,11.5-2.1,17.2-3.5l4.3-1l4.2-1.1c2.8-0.7,5.6-1.6,8.5-2.4c11.3-3.4,22.5-7.5,33.9-12l8.6-3.5
	c2.9-1.2,5.8-2.4,8.6-3.7c5.8-2.4,11.7-5,17.6-7.6l18.2-7.7c6.1-2.6,12.5-5.1,18.8-7.6c13.1-5,26.4-9.4,39.9-13
	c3.5-0.9,6.9-1.7,10.4-2.6l5.3-1.1c1.8-0.4,3.5-0.7,5.3-1c3.5-0.6,7.1-1.3,10.7-1.8l5.4-0.8l5.4-0.6c14.3-1.5,28.7-1.9,43.1-1
	c14.1,0.9,28.2,2.9,42,6c13.5,3.1,26.8,7.1,39.8,12c12.8,4.8,25.2,10.5,37.2,16.9c3,1.6,6,3.2,8.9,4.9l8.7,5.2l4.3,2.7
	c1.4,0.9,2.8,1.9,4.2,2.8c2.8,1.9,5.6,3.8,8.3,5.8c-3.4-0.3-6.7-0.7-10.1-1.2c-1.7-0.2-3.3-0.4-5-0.7l-5-0.6l-9.8-1.3
	c-3.3-0.3-6.6-0.8-9.8-1.1c-13-1.5-25.9-2.9-38.7-3.7s-25.3-1.3-37.7-1.1c-12.2,0.1-24.4,0.9-36.5,2.2c-23.6,2.8-46.9,8.3-69.3,16.4
	c-11.3,4-22.6,8.5-34.1,13.5c-5.8,2.5-11.6,5-17.5,7.6l-17.9,7.8l-9.2,3.9c-3.1,1.3-6.2,2.6-9.4,3.9c-6.3,2.5-12.8,5-19.3,7.3
	c-13.4,4.8-27.1,8.7-41.1,11.7c-7.1,1.5-14.2,2.8-21.5,3.6s-14.5,1.4-21.8,1.8c-14.5,0.5-29-0.3-43.3-2.3c-14-2-27.9-5.1-41.4-9.4
	c-13.2-4.1-26.1-9.2-38.7-15.1l-4.6-2.2c-1.6-0.7-3.1-1.5-4.6-2.3c-3-1.6-6.1-3.1-9.1-4.8s-5.9-3.4-8.9-5l-4.4-2.6l-4.3-2.7
	C79,177.4,68.1,169.5,57.6,160.9z"/>
</svg>
