<svg xmlns="http://www.w3.org/2000/svg" viewBox="0 0 242.28 408.63"><defs><style>.cls-1{fill:#f37158;}.cls-2{fill:#0083ad;}</style></defs><title>RRDlogo</title><g id="Layer_2" data-name="Layer 2"><g id="Layer_1-2" data-name="Layer 1"><path class="cls-1" d="M80.85,398.47,69.4,373.87a28.77,28.77,0,0,0,15.88-26.3c0-17.58-13.41-30.08-32.42-30.08H0v.26a12.14,12.14,0,0,1,3.87,2.53L26.69,335.2H50.91c8.59,0,14.19,5.34,14.19,12.37s-5.6,12.5-14.19,12.5H26.69l.13,17.44H50.13l9,19.79c2.6,5.73,1.69,9-2.47,11.07v.26h35v-.26A20.36,20.36,0,0,1,80.85,398.47Z"/><path class="cls-2" d="M156.25,398.47l-11.46-24.6a28.77,28.77,0,0,0,15.88-26.3c0-17.58-13.41-30.08-32.42-30.08H75.39v.26a12.14,12.14,0,0,1,3.87,2.53l22.82,14.92H126.3c8.59,0,14.19,5.34,14.19,12.37s-5.6,12.5-14.19,12.5H102.08l.13,17.44h23.31l9,19.79c2.61,5.73,1.69,9-2.47,11.07v.26h35v-.26A20.34,20.34,0,0,1,156.25,398.47Z"/><path class="cls-1" d="M196.72,317.49H150.37v.26a11.91,11.91,0,0,1,4.09,2.74l22.6,15.1h17.83c15.89,0,27.08,11.59,27.08,27.47s-11.19,27.47-27.08,27.47H181.28v7c0,5.73,2.6,9,6.9,10.81v.26h8.54c26.56,0,45.56-18.88,45.56-45.57S223.28,317.49,196.72,317.49Z"/><path class="cls-2" d="M138.37,101.14a21.38,21.38,0,0,0-17-20.94l-.14-67.86h0L112.94,0l-.31,80.2a21.38,21.38,0,0,0-17,20.94l0,0a21.39,21.39,0,0,0,42.78,0"/><path class="cls-1" d="M96.92,100.69v0a20.12,20.12,0,0,1,16-19.69V0L18.83,152.69C58.28,145.46,86.67,129.89,96.92,100.69Z"/><path class="cls-1" d="M215.22,152.63l-94-140.29,94,140.29Z"/><path class="cls-1" d="M121.14,81a20.12,20.12,0,0,1,16,19.69c10.75,30.08,38.44,46,78,51.94l-94-140.29-.07-.09Z"/><path class="cls-2" d="M117,317.5h0Z"/><path class="cls-2" d="M116.8,282.06c-4.52-6.45-10.76-11.46-17-16.21-5.23-4-11.13-8.93-10.74-15.47.35-5.89,5.79-10.15,11.16-12.6,8.54-3.9,18-5.31,26.7-8.85s17.11-10.14,18.75-19.38c1.68-9.46-4.13-19.1-2.29-28.53,1.59-8.09,8.63-14.19,16.29-17.24s16-3.62,24.22-4.7a191,191,0,0,0,31.35-6.45c-39.62-5.92-67.32-21.86-78.07-51.94a20.11,20.11,0,0,1-40.21,0c-10.26,29.18-38.65,44.73-78.09,52h0a.41.41,0,0,1,0,.09c29.13,3.53,58.13,13.2,80.75,31.88,5.09,4.21,9.9,8.93,13.12,14.69a21.38,21.38,0,0,1,3.09,10.82c-.19,8.72-7.62,15.64-15.48,19.44s-16.63,5.6-24.11,10.09-13.69,13-11.54,21.51c1.31,5.13,5.39,9.09,9.71,12.16,6.51,4.64,13.87,7.92,20.8,11.9s13.65,8.85,17.78,15.7a26.69,26.69,0,0,1,3.17,17.46c.16,0,4.67,0,6.38-.13C125.82,306.48,123.87,292.16,116.8,282.06Z"/><path class="cls-2" d="M18.83,152.69h0c39.44-7.24,67.83-22.79,78.09-52v0C86.67,129.89,58.28,145.46,18.83,152.69Z"/></g></g></svg>