<svg xmlns="http://www.w3.org/2000/svg" viewBox="0 0 284.5 284.5"><defs><style>.cls-1{fill:#0084ae;}.cls-2{fill:#f37158;}.cls-3{fill:#f3e8d0;}</style></defs><g id="Layer_2" data-name="Layer 2"><g id="Layer_1-2" data-name="Layer 1"><circle class="cls-1" cx="142.5" cy="142" r="142"/><polygon class="cls-2" points="142.5 93 107.14 107.64 92.5 143 107.14 178.35 142.5 193 177.85 178.35 192.5 143 177.85 107.64 142.5 93"/><path class="cls-3" d="M107,107.5c11.35-6.14,22.93-11.74,34.59-17.15,5.81-2.75,11.7-5.31,17.56-8s11.79-5.1,17.68-7.65q17.74-7.53,35.76-14.4c12-4.59,24.09-9,36.41-12.84-11.35,6.15-22.93,11.75-34.59,17.16S191,75.28,179.17,80.26c-5.94,2.45-11.86,4.94-17.82,7.35s-11.92,4.79-17.94,7C131.4,99.24,119.32,103.64,107,107.5Z"/><path class="cls-3" d="M143,93.5c12.16,2.91,24.12,6.39,36,10s23.71,7.56,35.46,11.64,23.44,8.35,35,12.85,23.14,9.22,34.48,14.48c-12.16-2.9-24.12-6.38-36-10s-23.72-7.56-35.46-11.65-23.44-8.36-35-12.86S154.34,98.76,143,93.5Z"/><path class="cls-3" d="M178,105.5c6.3,11.16,12.06,22.57,17.63,34.06,2.84,5.72,5.48,11.53,8.21,17.29s5.26,11.63,7.9,17.44q7.77,17.49,14.9,35.26C231.41,221.4,236,233.33,240,245.5c-6.31-11.16-12.07-22.56-17.64-34.05s-11-23.06-16.1-34.74c-2.53-5.85-5.11-11.69-7.6-17.56s-5-11.76-7.29-17.71C186.6,129.6,182,117.67,178,105.5Z"/><path class="cls-3" d="M193,142.5c-3.08,12.25-6.72,24.31-10.56,36.29-1.86,6-3.93,12-5.9,17.92s-4.15,11.87-6.22,17.8Q164,232.27,157,249.79c-4.66,11.69-9.52,23.3-14.95,34.71,3.07-12.26,6.71-24.31,10.55-36.29s7.86-23.9,12.13-35.72c2.18-5.9,4.31-11.81,6.53-17.7s4.46-11.76,6.85-17.58C182.72,165.53,187.58,153.91,193,142.5Z"/><path class="cls-3" d="M178,178.5c-11.18,6.14-22.59,11.74-34.08,17.14-5.73,2.76-11.53,5.31-17.3,8s-11.63,5.1-17.44,7.66q-17.49,7.52-35.26,14.39c-11.84,4.6-23.76,9-35.92,12.85,11.17-6.15,22.58-11.75,34.08-17.15s23.07-10.62,34.74-15.61c5.86-2.44,11.69-4.93,17.56-7.34s11.76-4.8,17.7-7C153.92,186.76,165.84,182.36,178,178.5Z"/><path class="cls-3" d="M142,193.5c-12.25-3.08-24.31-6.72-36.29-10.56-6-1.86-11.95-3.93-17.92-5.9s-11.87-4.15-17.8-6.22q-17.76-6.34-35.28-13.37C23,152.79,11.41,147.93,0,142.5c12.26,3.07,24.31,6.71,36.29,10.55s23.9,7.86,35.72,12.13c5.9,2.18,11.81,4.31,17.7,6.53s11.76,4.46,17.58,6.85C119,183.22,130.59,188.08,142,193.5Z"/><path class="cls-3" d="M107,178.5c-6.22-11.26-11.9-22.75-17.39-34.32-2.8-5.77-5.39-11.62-8.08-17.43S76.34,115,73.75,109.19Q66.1,91.58,59.1,73.68C54.42,61.76,49.94,49.75,46,37.5c6.23,11.25,11.91,22.74,17.4,34.32s10.78,23.23,15.85,35c2.49,5.9,5,11.78,7.47,17.69s4.88,11.84,7.17,17.82C98.57,154.25,103.06,166.26,107,178.5Z"/><path class="cls-3" d="M92,143.5C95,131.17,98.55,119,102.3,107c1.82-6,3.85-12,5.78-18s4.06-12,6.09-17.93q6.22-17.88,13.12-35.53C131.87,23.71,136.65,12,142,.5,139,12.83,135.46,25,131.71,37S124,61.08,119.83,73c-2.14,5.94-4.23,11.89-6.41,17.82s-4.37,11.84-6.72,17.71C102.12,120.29,97.34,132,92,143.5Z"/></g></g></svg>